<svg width="24" height="24" viewBox="0 0 24 24" fill="none" xmlns="http://www.w3.org/2000/svg">
<g clip-path="url(#clip0_55827_17907)">
<path d="M12 0.75C5.79672 0.75 0.749971 5.79675 0.749971 12C0.749971 14.3066 1.44185 16.5161 2.75285 18.4042L0.772096 22.731C0.706846 22.8735 0.736846 23.0415 0.847846 23.1525C0.919471 23.2245 1.01547 23.2624 1.11297 23.2624C1.16585 23.2624 1.2191 23.2511 1.26897 23.2283L5.5961 21.2475C7.4846 22.5585 9.69372 23.2504 12 23.2504C18.2032 23.2504 23.25 18.2036 23.25 12.0004C23.25 5.79712 18.2032 0.75 12 0.75ZM12 22.5C9.77922 22.5 7.65447 21.8126 5.85597 20.5125C5.79072 20.4656 5.71385 20.4416 5.63622 20.4416C5.58297 20.4416 5.5301 20.4529 5.48022 20.4757L1.87347 22.1269L3.5246 18.5201C3.58085 18.3971 3.5666 18.2539 3.48747 18.1444C2.18697 16.3462 1.4996 14.2219 1.4996 12.0004C1.4996 6.21075 6.20997 1.50037 11.9996 1.50037C17.7892 1.50037 22.4996 6.21075 22.4996 12.0004C22.4996 17.79 17.7892 22.5004 11.9996 22.5004L12 22.5Z" fill="#49454F"/>
<path d="M14.1465 20.7417C13.9477 20.7904 13.746 20.8328 13.542 20.868C13.338 20.9033 13.2011 21.0975 13.2367 21.3015C13.2682 21.4838 13.4268 21.6124 13.6057 21.6124C13.6271 21.6124 13.6485 21.6105 13.6702 21.6068C13.8911 21.5685 14.1097 21.5228 14.3253 21.4699C14.5263 21.4204 14.6493 21.2175 14.5998 21.0165C14.5507 20.8152 14.3471 20.6933 14.1465 20.7417Z" fill="#49454F"/>
<path d="M16.0193 20.0516C15.8344 20.1446 15.7594 20.37 15.8524 20.5548C15.918 20.6861 16.0504 20.7618 16.188 20.7618C16.2443 20.7618 16.302 20.7491 16.3556 20.7221C19.0144 19.3893 20.9573 16.8622 21.5516 13.9623C21.5933 13.7595 21.4628 13.5611 21.2599 13.5195C21.0544 13.4778 20.8586 13.6083 20.817 13.8112C20.2676 16.488 18.4744 18.8208 16.0193 20.0516Z" fill="#49454F"/>
<path d="M13.5787 10.7723C13.5787 9.8985 12.8677 9.1875 11.9936 9.1875C11.1195 9.1875 10.4089 9.8985 10.4089 10.7723V17.0625C10.4089 17.9363 11.1199 18.6473 11.994 18.6473C12.8681 18.6473 13.5787 17.9363 13.5787 17.0625V10.7723ZM12.8287 17.0625C12.8287 17.5226 12.4545 17.8973 11.994 17.8973C11.5335 17.8973 11.1592 17.5226 11.1592 17.0625V10.7723C11.1592 10.3121 11.5339 9.9375 11.9944 9.9375C12.4549 9.9375 12.8291 10.3121 12.8291 10.7723L12.8287 17.0625Z" fill="#49454F"/>
<path d="M11.994 8.53425C12.8677 8.53425 13.5787 7.82325 13.5787 6.9495C13.5787 6.07575 12.8677 5.36475 11.994 5.36475C11.1202 5.36475 10.4089 6.07575 10.4089 6.9495C10.4089 7.82325 11.1199 8.53425 11.994 8.53425ZM11.994 6.11512C12.4545 6.11512 12.8287 6.48975 12.8287 6.94987C12.8287 7.41 12.4545 7.78462 11.994 7.78462C11.5335 7.78462 11.1589 7.41 11.1589 6.94987C11.1589 6.48975 11.5335 6.11512 11.994 6.11512Z" fill="#49454F"/>
</g>
<defs>
<clipPath id="clip0_55827_17907">
<rect width="24" height="24" fill="white"/>
</clipPath>
</defs>
</svg>
