<svg width="23" height="24" viewBox="0 0 23 24" fill="none" xmlns="http://www.w3.org/2000/svg">
<g clip-path="url(#clip0_55822_15974)">
<path d="M18.7451 11.4203L17.1445 13.0904C16.8361 13.4123 16.7969 13.9229 17.0579 14.2876C17.1417 14.4047 17.2346 14.5169 17.3366 14.6233C17.5889 14.8865 17.8758 15.0919 18.182 15.2394C18.5576 15.4202 18.7301 15.8809 18.5608 16.2748C18.2956 16.8922 17.8817 17.5213 17.3365 18.0902C16.7914 18.659 16.1885 19.0908 15.5968 19.3676C15.2194 19.5442 14.7778 19.3644 14.6045 18.9724C14.4632 18.6528 14.2664 18.3535 14.0141 18.0902C13.9121 17.9838 13.8046 17.8869 13.6924 17.7994C13.3429 17.527 12.8536 17.568 12.5451 17.8898L9.66576 20.8944C9.34695 21.227 9.31955 21.7573 9.60274 22.1235C9.72205 22.2777 9.84751 22.4163 9.97334 22.5346C12.1502 24.6252 16.3953 23.6947 19.5514 20.4014C22.7076 17.108 23.5993 12.6783 21.5958 10.4068C21.4822 10.2754 21.3498 10.1446 21.2021 10.0202C20.8513 9.72456 20.343 9.75306 20.0241 10.0858L19.8659 10.2508" stroke="#4E4446" stroke-width="0.8" stroke-miterlimit="10" stroke-linecap="round" stroke-linejoin="round"/>
<path d="M18.4902 13.7451L20.6507 11.4907" stroke="#4E4446" stroke-width="0.8" stroke-miterlimit="10" stroke-linecap="round" stroke-linejoin="round"/>
<path d="M11.0117 21.5485L13.1721 19.2942" stroke="#4E4446" stroke-width="0.8" stroke-miterlimit="10" stroke-linecap="round" stroke-linejoin="round"/>
<path d="M10.7832 2.66577V7.3978" stroke="#4E4446" stroke-width="0.8" stroke-miterlimit="10" stroke-linecap="round" stroke-linejoin="round"/>
<path d="M11.3509 5.03179H8.5166L10.784 2.66577" stroke="#4E4446" stroke-width="0.8" stroke-miterlimit="10" stroke-linecap="round" stroke-linejoin="round"/>
<path d="M5.72042 4.66621C5.50398 4.44036 5.37012 4.12836 5.37012 3.78369C5.37012 3.09439 5.90559 2.53564 6.56616 2.53564C7.22674 2.53564 7.76221 3.09439 7.76221 3.78369C7.76221 4.06433 7.67344 4.32336 7.52358 4.53182C6.66221 5.73022 5.37012 7.52783 5.37012 7.52783H7.76221" stroke="#4E4446" stroke-width="0.8" stroke-miterlimit="10" stroke-linecap="round" stroke-linejoin="round"/>
<path d="M7.7627 11.272V10.6479H10.1548L7.7627 15.6401" stroke="#4E4446" stroke-width="0.8" stroke-miterlimit="10" stroke-linecap="round" stroke-linejoin="round"/>
<path d="M4.77246 9.08789H11.9487" stroke="#4E4446" stroke-width="0.8" stroke-miterlimit="10" stroke-linecap="round" stroke-linejoin="round"/>
<path d="M3.49742 2.06402C1.58118 3.5899 0.343001 5.9958 0.336937 8.70377C0.326515 13.3235 3.9332 17.0962 8.36043 17.0962C10.0014 17.0962 11.5274 16.5821 12.7984 15.6999C12.854 15.6613 12.9189 15.6402 12.9857 15.6402H14.9885V13.5503C14.9885 13.4807 15.0087 13.4129 15.0457 13.3549C15.8912 12.0286 16.3838 10.4363 16.3838 8.72398C16.3839 4.10426 12.7683 0.340758 8.34112 0.351586C7.10024 0.354633 5.92553 0.651586 4.87759 1.1793" stroke="#4E4446" stroke-width="0.8" stroke-miterlimit="10" stroke-linecap="round" stroke-linejoin="round"/>
</g>
<defs>
<clipPath id="clip0_55822_15974">
<rect width="23" height="24" fill="white"/>
</clipPath>
</defs>
</svg>
