<svg width="24" height="24" viewBox="0 0 24 24" fill="none" xmlns="http://www.w3.org/2000/svg">
<path d="M12 0.749512C11.096 0.749512 10.3377 1.39561 10.1631 2.24949H9C8.38324 2.24949 7.875 2.75775 7.875 3.37451V4.87449C7.875 5.49125 8.38324 5.99951 9 5.99951H15C15.6168 5.99951 16.125 5.49125 16.125 4.87449V3.37451C16.125 2.75775 15.6168 2.24949 15 2.24949H13.8369C13.6623 1.39561 12.904 0.749512 12 0.749512ZM12 1.49948C12.6182 1.49948 13.1036 1.97763 13.1213 2.5908C13.1013 2.81239 13.2775 3.00255 13.5 2.9995H15C15.2142 2.9995 15.375 3.16027 15.375 3.37451V4.87449C15.375 5.08873 15.2142 5.24949 15 5.24949H9C8.78576 5.24949 8.625 5.08873 8.625 4.87449V3.37451C8.625 3.16027 8.78576 2.9995 9 2.9995H10.5C10.7228 3.00234 10.8991 2.81194 10.8787 2.59007C10.8968 1.97725 11.3821 1.49948 12 1.49948ZM4.87647 3.00097C4.2597 3.00097 3.75 3.50774 3.75 4.12452V22.123C3.75 22.7398 4.2597 23.2502 4.87647 23.2502H19.1243C19.741 23.2502 20.2507 22.7398 20.2507 22.123V4.12452C20.2507 3.50774 19.741 3.00097 19.1243 3.00097H17.25C16.761 3.01231 16.761 3.74013 17.25 3.75099H19.1243C19.3385 3.75099 19.5007 3.91028 19.5007 4.12452V22.123C19.5007 22.3373 19.3385 22.5002 19.1243 22.5002H4.87647C4.66222 22.5002 4.5 22.3373 4.5 22.123V4.12452C4.5 3.91028 4.66222 3.75099 4.87647 3.75099H6.75C7.23903 3.73965 7.23903 3.01183 6.75 3.00097H4.87647ZM5.62353 4.49801C5.41644 4.49885 5.24921 4.66739 5.25 4.87449V21.3731C5.24925 21.5801 5.41644 21.7487 5.62353 21.7495H18.3743C18.5825 21.7502 18.7515 21.5813 18.7507 21.3731V4.87449C18.7515 4.66624 18.5825 4.49723 18.3743 4.49801H17.25C16.761 4.50935 16.761 5.23717 17.25 5.24802H18V20.9995H6V5.24802H6.75C7.23903 5.23668 7.23903 4.50887 6.75 4.49801H5.62353ZM7.12427 7.49875C6.91688 7.49912 6.74921 7.66784 6.75 7.87523V10.1231C6.74925 10.3304 6.91688 10.4991 7.12427 10.4995H9.375C9.58324 10.5002 9.75226 10.3313 9.75146 10.1231V7.87523C9.75221 7.66698 9.58324 7.49796 9.375 7.49875H7.12427ZM10.875 7.49875C10.386 7.51009 10.386 8.23791 10.875 8.24876H16.8735C17.3626 8.23742 17.3626 7.50961 16.8735 7.49875H10.875ZM7.50073 8.24876H9.00073V9.74952H7.50073V8.24876ZM10.875 10.4995H13.1257C13.6148 10.4881 13.6148 9.76038 13.1257 9.74952H10.8556C10.3476 9.78552 10.3853 10.5141 10.875 10.4995ZM14.6257 10.4995H15.3757C15.8648 10.4881 15.8648 9.76038 15.3757 9.74952H14.6063C14.0983 9.78552 14.136 10.5141 14.6257 10.4995ZM6.75 12.3738V14.6245C6.74925 14.8319 6.91688 15.0006 7.12427 15.001H9.375C9.58324 15.0017 9.75226 14.8328 9.75146 14.6245V12.3738C9.75071 12.1667 9.5821 11.9995 9.375 12.0002H7.10632C6.89626 12.0191 6.74985 12.1807 6.75 12.3738ZM10.875 12.7502H16.8735C17.3848 12.7616 17.3848 11.9889 16.8735 12.0002H10.8556C10.3476 12.0362 10.3853 12.7648 10.875 12.7502ZM7.50073 12.7502H9.00073V14.251H7.50073V12.7502ZM10.875 15.001H13.1257C13.637 15.0123 13.637 14.2396 13.1257 14.251H10.8556C10.3476 14.287 10.3853 15.0156 10.875 15.001ZM14.6257 15.001H15.3757C15.887 15.0123 15.887 14.2396 15.3757 14.251H14.6063C14.0983 14.287 14.136 15.0156 14.6257 15.001ZM7.12427 16.498C6.91659 16.4984 6.7488 16.6676 6.75 16.8752V19.1252C6.75075 19.3315 6.91803 19.4983 7.12427 19.4988H9.375C9.5821 19.4995 9.75064 19.3323 9.75146 19.1252V16.8752C9.75259 16.6667 9.58353 16.4972 9.375 16.498H7.12427ZM10.875 16.498C10.3745 16.498 10.3745 17.2488 10.875 17.2488H16.8735C17.374 17.2488 17.374 16.498 16.8735 16.498H10.875ZM7.50073 17.2488H9.00073V18.7487H7.50073V17.2488ZM10.875 18.7487C10.386 18.7601 10.386 19.4879 10.875 19.4988H13.1257C13.6148 19.4874 13.6148 18.7596 13.1257 18.7487H10.875ZM14.6257 18.7487C14.1367 18.7601 14.1367 19.4879 14.6257 19.4988H15.3765C15.8655 19.4874 15.8655 18.7596 15.3765 18.7487H14.6257Z" fill="#49454F"/>
</svg>
