<svg width="24" height="24" viewBox="0 0 24 24" fill="none" xmlns="http://www.w3.org/2000/svg">
<g clip-path="url(#clip0_55827_17407)">
<path d="M20.2501 14.25H19.5C19.2929 14.25 19.125 14.4179 19.125 14.625C19.125 14.8321 19.2929 15 19.5 15H20.2501C20.4572 15 20.6251 14.8321 20.6251 14.625C20.6251 14.4179 20.4572 14.25 20.2501 14.25Z" fill="#49454F"/>
<path d="M15.75 18H8.25C7.6297 18 7.125 18.5047 7.125 19.125C7.125 19.7453 7.6297 20.25 8.25 20.25H15.75C16.3703 20.25 16.875 19.7453 16.875 19.125C16.875 18.5047 16.3703 18 15.75 18ZM15.75 19.5H8.25C8.04323 19.5 7.875 19.3318 7.875 19.125C7.875 18.9182 8.04323 18.75 8.25 18.75H15.75C15.9568 18.75 16.125 18.9182 16.125 19.125C16.125 19.3318 15.9568 19.5 15.75 19.5Z" fill="#49454F"/>
<path d="M4.125 12C4.33209 12 4.5 11.8321 4.5 11.625V5.25H19.5V11.625C19.5 11.8321 19.6679 12 19.875 12C20.0821 12 20.25 11.8321 20.25 11.625V5.25C20.25 4.83647 19.9135 4.5 19.5 4.5V3.75C19.5 3.33647 19.1635 3 18.75 3V2.25C18.75 1.83647 18.4135 1.5 18 1.5V0.75C18 0.336469 17.6635 0 17.25 0H6.75C6.33647 0 6 0.336469 6 0.75V1.5C5.58647 1.5 5.25 1.83647 5.25 2.25V3C4.83647 3 4.5 3.33647 4.5 3.75V4.5C4.08647 4.5 3.75 4.83647 3.75 5.25V11.625C3.75 11.8321 3.91791 12 4.125 12ZM6.75 0.75H17.25V1.5H6.75V0.75ZM6 2.25H18V3H6V2.25ZM5.25 3.75H18.75V4.5H5.25V3.75Z" fill="#49454F"/>
<path d="M23.9949 13.7691C23.9865 13.6796 23.9675 13.5932 23.9393 13.511L22.4934 6.93736C22.4016 6.39347 21.9371 6 21.3842 6H21.375C21.1679 6 21 6.16791 21 6.375C21 6.58209 21.1679 6.75 21.375 6.75H21.3842C21.5699 6.75 21.7256 6.88312 21.7546 7.0665C21.7558 7.07391 21.7571 7.08127 21.7587 7.08858L23.0056 12.7578C22.9628 12.7529 22.9192 12.75 22.875 12.75H1.125C1.0808 12.75 1.03725 12.7529 0.994359 12.7578L2.24123 7.08858C2.24283 7.08127 2.24419 7.07391 2.24536 7.0665C2.27437 6.88312 2.43014 6.75 2.61581 6.75H2.625C2.83209 6.75 3 6.58209 3 6.375C3 6.16791 2.83209 6 2.625 6H2.61581C2.06292 6 1.59834 6.39347 1.50656 6.93736L0.0607969 13.511C0.0325781 13.5932 0.0135469 13.6796 0.00515625 13.7691C0.00103125 13.7948 -0.000375 13.8204 0.00075 13.8455C0.00046875 13.8554 0 13.8651 0 13.875V15.375V22.875C0 23.4953 0.504656 24 1.125 24H22.875C23.4953 24 24 23.4953 24 22.875V15.375V13.875C24 13.8651 23.9995 13.8554 23.9993 13.8456C24.0004 13.8204 23.999 13.7948 23.9949 13.7691ZM23.25 22.875C23.25 23.0818 23.0818 23.25 22.875 23.25H1.125C0.918234 23.25 0.75 23.0818 0.75 22.875V15.375C0.75 15.1682 0.918234 15 1.125 15H18C18.207 15 18.375 14.8321 18.375 14.625C18.375 14.4179 18.207 14.25 18 14.25H1.125C0.993563 14.25 0.867375 14.2729 0.75 14.3145V13.875C0.75 13.8723 0.750328 13.8697 0.750422 13.8671L0.781781 13.7245C0.839906 13.5925 0.971766 13.5 1.12505 13.5H22.875C23.0283 13.5 23.1602 13.5925 23.2183 13.7245L23.2497 13.8671C23.2497 13.8697 23.2501 13.8723 23.2501 13.875V14.3145C23.1327 14.2729 23.0065 14.25 22.8751 14.25H21.7501C21.543 14.25 21.3751 14.4179 21.3751 14.625C21.3751 14.8321 21.543 15 21.7501 15H22.8751C23.0819 15 23.2501 15.1682 23.2501 15.375V22.875H23.25Z" fill="#49454F"/>
<path d="M10.875 9C11.0821 9 11.25 8.83209 11.25 8.625C11.25 8.41791 11.0821 8.25 10.875 8.25H7.875C7.66791 8.25 7.5 8.41791 7.5 8.625C7.5 8.83209 7.66791 9 7.875 9H10.875Z" fill="#49454F"/>
<path d="M13.5 7.125C13.5 6.91791 13.3321 6.75 13.125 6.75H7.875C7.66791 6.75 7.5 6.91791 7.5 7.125C7.5 7.33209 7.66791 7.5 7.875 7.5H13.125C13.3321 7.5 13.5 7.33209 13.5 7.125Z" fill="#49454F"/>
<path d="M6 7.5H6.375C6.58209 7.5 6.75 7.33209 6.75 7.125C6.75 6.91791 6.58209 6.75 6.375 6.75H6C5.79291 6.75 5.625 6.91791 5.625 7.125C5.625 7.33209 5.79291 7.5 6 7.5Z" fill="#49454F"/>
<path d="M6 9H6.375C6.58209 9 6.75 8.83209 6.75 8.625C6.75 8.41791 6.58209 8.25 6.375 8.25H6C5.79291 8.25 5.625 8.41791 5.625 8.625C5.625 8.83209 5.79291 9 6 9Z" fill="#49454F"/>
<path d="M6 11.25C5.79291 11.25 5.625 11.4179 5.625 11.625C5.625 11.8321 5.79291 12 6 12H9.375C9.58209 12 9.75 11.8321 9.75 11.625C9.75 11.4179 9.58209 11.25 9.375 11.25H6Z" fill="#49454F"/>
<path d="M12.375 10.125C12.375 9.91791 12.2071 9.75 12 9.75H6C5.79291 9.75 5.625 9.91791 5.625 10.125C5.625 10.3321 5.79291 10.5 6 10.5H12C12.2071 10.5 12.375 10.3321 12.375 10.125Z" fill="#49454F"/>
<path d="M18 9.75H16.125C15.9179 9.75 15.75 9.91791 15.75 10.125C15.75 10.3321 15.9179 10.5 16.125 10.5H18C18.2071 10.5 18.375 10.3321 18.375 10.125C18.375 9.91791 18.2071 9.75 18 9.75Z" fill="#49454F"/>
<path d="M13.5 12H18C18.2071 12 18.375 11.8321 18.375 11.625C18.375 11.4179 18.2071 11.25 18 11.25H13.5C13.2929 11.25 13.125 11.4179 13.125 11.625C13.125 11.8321 13.2929 12 13.5 12Z" fill="#49454F"/>
</g>
<defs>
<clipPath id="clip0_55827_17407">
<rect width="24" height="24" fill="white"/>
</clipPath>
</defs>
</svg>
