<svg width="20" height="26" viewBox="0 0 20 26" fill="none" xmlns="http://www.w3.org/2000/svg">
<path d="M7.26114 2.46143H2.17188C1.52467 2.46143 1 2.9861 1 3.6333V16.5156" stroke="#49454F" stroke-width="0.8" stroke-miterlimit="10" stroke-linecap="round" stroke-linejoin="round"/>
<path d="M16.8119 16.6228V3.6333C16.8119 2.9861 16.2872 2.46143 15.64 2.46143H10.5508" stroke="#49454F" stroke-width="0.8" stroke-miterlimit="10" stroke-linejoin="round"/>
<path d="M1 18.1562V22.156C1 22.8032 1.52467 23.3278 2.17188 23.3278H11.6096" stroke="#49454F" stroke-width="0.8" stroke-miterlimit="10" stroke-linecap="round" stroke-linejoin="round"/>
<path d="M10.6796 4.18802V3.12545C10.6796 2.14577 9.88541 1.35156 8.90573 1.35156C7.92604 1.35156 7.13184 2.14577 7.13184 3.12545V4.18802H10.6796Z" stroke="#49454F" stroke-width="0.8" stroke-miterlimit="10" stroke-linecap="round" stroke-linejoin="round"/>
<path d="M11.8905 6.25982H5.92188C5.66298 6.25982 5.45312 6.04996 5.45312 5.79107V4.18799H12.3592V5.79107C12.3592 6.04996 12.1494 6.25982 11.8905 6.25982Z" stroke="#49454F" stroke-width="0.8" stroke-miterlimit="10" stroke-linecap="round" stroke-linejoin="round"/>
<path d="M9.34961 8.94531H12.852" stroke="#49454F" stroke-width="0.8" stroke-miterlimit="10" stroke-linecap="round" stroke-linejoin="round"/>
<path d="M9.34961 10.7704H12.852" stroke="#49454F" stroke-width="0.8" stroke-miterlimit="10" stroke-linecap="round" stroke-linejoin="round"/>
<path d="M5.00879 14.5305H12.8522" stroke="#49454F" stroke-width="0.8" stroke-miterlimit="10" stroke-linecap="round" stroke-linejoin="round"/>
<path d="M5.00879 16.3556H10.3719" stroke="#49454F" stroke-width="0.8" stroke-miterlimit="10" stroke-linecap="round" stroke-linejoin="round"/>
<path d="M5.00879 18.1808H9.34979" stroke="#49454F" stroke-width="0.8" stroke-miterlimit="10" stroke-linecap="round" stroke-linejoin="round"/>
<path d="M11.0841 18.0598C10.6612 18.7244 10.416 19.5132 10.416 20.3594C10.416 22.7282 12.3363 24.6484 14.7051 24.6484C17.0739 24.6484 18.9941 22.7282 18.9941 20.3594C18.9941 17.9906 17.0739 16.0703 14.7051 16.0703C13.7756 16.0703 12.9153 16.366 12.2129 16.8684" stroke="#49454F" stroke-width="0.8" stroke-miterlimit="10" stroke-linecap="round" stroke-linejoin="round"/>
<path d="M14.7051 18.3884V22.3303" stroke="#49454F" stroke-width="0.8" stroke-miterlimit="10" stroke-linecap="round" stroke-linejoin="round"/>
<path d="M16.6762 20.3594H12.7344" stroke="#49454F" stroke-width="0.8" stroke-miterlimit="10" stroke-linecap="round" stroke-linejoin="round"/>
<path d="M7.43818 11.1898H5.24316C5.11374 11.1898 5.00879 11.0848 5.00879 10.9554V8.76038C5.00879 8.63095 5.11374 8.526 5.24316 8.526H7.43818C7.5676 8.526 7.67255 8.63095 7.67255 8.76038V10.9554C7.67255 11.0848 7.5676 11.1898 7.43818 11.1898Z" stroke="#49454F" stroke-width="0.8" stroke-miterlimit="10" stroke-linecap="round" stroke-linejoin="round"/>
<path d="M15.0856 8.8281V4.42236C15.0856 4.29294 14.9806 4.18799 14.8512 4.18799H2.96094C2.83152 4.18799 2.72656 4.29294 2.72656 4.42236V21.3669C2.72656 21.4963 2.83152 21.6013 2.96094 21.6013H10.5991" stroke="#49454F" stroke-width="0.8" stroke-miterlimit="10" stroke-linecap="round" stroke-linejoin="round"/>
<path d="M15.0859 16.0873V10.4688" stroke="#49454F" stroke-width="0.8" stroke-miterlimit="10" stroke-linecap="round" stroke-linejoin="round"/>
<path d="M5.00879 12.7052H12.8522" stroke="#49454F" stroke-width="0.8" stroke-miterlimit="10" stroke-linecap="round" stroke-linejoin="round"/>
</svg>
