<svg width="217" height="37" viewBox="0 0 217 37" fill="none" xmlns="http://www.w3.org/2000/svg">
<path d="M58.2388 5.5H64.4573V6.88622H59.73V10.8758H64.1717V12.2959H59.73V18.2464H58.2388V5.5Z" fill="black"/>
<path d="M68.4549 8.40771C71.0564 8.40771 71.691 10.7406 71.691 13.4454C71.691 16.1502 71.0247 18.4832 68.4549 18.4832C65.8533 18.4832 65.2187 16.1502 65.2187 13.4454C65.187 10.7744 65.8533 8.40771 68.4549 8.40771ZM70.1998 13.4792C70.1998 11.4168 69.946 9.62488 68.3914 9.62488C66.9637 9.62488 66.6464 11.4168 66.6464 13.4792C66.6464 15.5417 66.932 17.3336 68.3914 17.3336C69.9143 17.3336 70.1998 15.5417 70.1998 13.4792Z" fill="black"/>
<path d="M73.4045 8.6782H74.737V9.79393H74.7687C75.1495 8.91486 76.0695 8.40771 76.9579 8.40771C79.3374 8.40771 79.3374 10.3011 79.3374 11.4506V18.2465H77.9414V11.6197C77.9414 10.8759 77.878 9.6925 76.6089 9.6925C75.8474 9.6925 74.8322 10.2335 74.8322 11.6197V18.2465H73.4362V8.6782H73.4045Z" fill="black"/>
<path d="M87.4276 18.2466H86.0951V17.097H86.0634C85.873 17.807 85.0798 18.5171 84.128 18.5171C82.0023 18.5171 81.1774 16.4884 81.1774 13.4793C81.1774 11.4845 81.463 8.44161 84.0011 8.44161C84.7943 8.44161 85.6509 8.94876 85.9682 9.79402H85.9999V5.53394H87.3959V18.2466H87.4276ZM84.2867 17.2323C85.8413 17.2323 86.0951 15.677 86.0951 13.4793C86.0951 11.6198 85.8095 9.7264 84.2867 9.7264C82.9859 9.7264 82.6369 11.1802 82.6369 13.4793C82.6369 15.7446 82.9859 17.2323 84.2867 17.2323Z" fill="black"/>
<path d="M89.3626 11.5858C89.3626 9.4219 90.2509 8.44141 92.3766 8.44141C95.1051 8.44141 95.1051 10.1995 95.1051 11.18V16.522C95.1051 16.9278 95.0734 17.2997 95.5493 17.2997C95.7396 17.2997 95.8031 17.2659 95.8983 17.1982V18.2802C95.7714 18.314 95.4224 18.3816 95.0734 18.3816C94.5658 18.3816 93.836 18.3816 93.8043 17.1306H93.7726C93.3284 17.9759 92.4718 18.5169 91.6152 18.5169C89.9337 18.5169 89.1722 17.4349 89.1722 15.7106C89.1722 14.3582 89.7116 13.4453 90.8537 13.0734L92.7573 12.4648C93.8043 12.1267 93.7726 11.7886 93.7726 11.011C93.7726 10.0981 93.265 9.59096 92.3132 9.59096C90.7585 9.59096 90.7585 11.1124 90.7585 11.4843V11.5858H89.3626ZM93.7409 13.0396C93.2015 13.6144 91.9642 13.7158 91.3296 14.1553C90.8855 14.4596 90.6316 14.8315 90.6316 15.6768C90.6316 16.6573 90.9489 17.3335 91.9007 17.3335C92.8525 17.3335 93.7091 16.522 93.7091 15.5077V13.0396H93.7409Z" fill="black"/>
<path d="M97.9607 5.87207H99.3566V8.67832H100.911V9.86168H99.3566V16.0151C99.3566 16.7928 99.547 17.0971 100.277 17.0971C100.594 17.0971 100.753 17.0632 100.911 17.0294V18.2804C100.721 18.348 100.372 18.3818 99.7691 18.3818C98.2779 18.3818 97.9607 17.7395 97.9607 16.4885V9.86168H96.6599V8.67832H97.9607V5.87207Z" fill="black"/>
<path d="M102.276 5.5H103.672V7.22432H102.276V5.5ZM102.276 8.67816H103.672V18.2803H102.276V8.67816Z" fill="black"/>
<path d="M108.748 8.40771C111.349 8.40771 111.984 10.7406 111.984 13.4454C111.984 16.1502 111.318 18.4832 108.748 18.4832C106.146 18.4832 105.512 16.1502 105.512 13.4454C105.512 10.7744 106.146 8.40771 108.748 8.40771ZM110.524 13.4792C110.524 11.4168 110.271 9.62488 108.716 9.62488C107.288 9.62488 106.971 11.4168 106.971 13.4792C106.971 15.5417 107.257 17.3336 108.716 17.3336C110.207 17.3336 110.524 15.5417 110.524 13.4792Z" fill="black"/>
<path d="M113.729 8.6782H115.061V9.79393H115.093C115.474 8.91486 116.394 8.40771 117.282 8.40771C119.662 8.40771 119.662 10.3011 119.662 11.4506V18.2465H118.266V11.6197C118.266 10.8759 118.202 9.6925 116.933 9.6925C116.172 9.6925 115.157 10.2335 115.157 11.6197V18.2465H113.761V8.6782H113.729Z" fill="black"/>
<path d="M126.261 5.5H128.736L131.147 15.6093H131.179L133.558 5.5H136.065V18.2464H134.573V7.08908H134.542L131.877 18.2464H130.417L127.752 7.08908H127.72V18.2464H126.261V5.5Z" fill="black"/>
<path d="M141.109 8.40771C143.711 8.40771 144.346 10.7406 144.346 13.4454C144.346 16.1502 143.679 18.4832 141.109 18.4832C138.508 18.4832 137.873 16.1502 137.873 13.4454C137.873 10.7744 138.508 8.40771 141.109 8.40771ZM142.854 13.4792C142.854 11.4168 142.601 9.62488 141.046 9.62488C139.618 9.62488 139.301 11.4168 139.301 13.4792C139.301 15.5417 139.587 17.3336 141.046 17.3336C142.569 17.3336 142.854 15.5417 142.854 13.4792Z" fill="black"/>
<path d="M146.09 5.5H147.486V9.76009H147.518C147.899 8.98245 148.882 8.40768 149.676 8.40768C152.023 8.40768 151.992 10.3011 151.992 11.4506V18.2464H150.596V11.6196C150.596 10.8758 150.532 9.69247 149.263 9.69247C148.502 9.69247 147.486 10.2334 147.486 11.6196V18.2464H146.09V5.5Z" fill="black"/>
<path d="M153.958 11.5858C153.958 9.4219 154.847 8.44141 156.972 8.44141C159.701 8.44141 159.701 10.1995 159.701 11.18V16.522C159.701 16.9278 159.669 17.2997 160.145 17.2997C160.335 17.2997 160.399 17.2659 160.494 17.1982V18.2802C160.367 18.314 160.018 18.3816 159.669 18.3816C159.161 18.3816 158.432 18.3816 158.4 17.1306H158.368C157.924 17.9759 157.067 18.5169 156.211 18.5169C154.529 18.5169 153.768 17.4349 153.768 15.7106C153.768 14.3582 154.307 13.4453 155.449 13.0734L157.353 12.4648C158.4 12.1267 158.368 11.7886 158.368 11.011C158.368 10.0981 157.861 9.59096 156.909 9.59096C155.354 9.59096 155.354 11.1124 155.354 11.4843V11.5858H153.958ZM158.305 13.0396C157.765 13.6144 156.528 13.7158 155.894 14.1553C155.449 14.4596 155.196 14.8315 155.196 15.6768C155.196 16.6573 155.513 17.3335 156.465 17.3335C157.416 17.3335 158.273 16.522 158.273 15.5077V13.0396H158.305Z" fill="black"/>
<path d="M162.081 8.6782H163.413V9.79393H163.445C163.826 8.91486 164.746 8.40771 165.634 8.40771C166.681 8.40771 167.284 8.84725 167.569 9.92917C167.982 9.08392 168.775 8.40771 169.695 8.40771C172.075 8.40771 172.075 10.3011 172.075 11.4506V18.2465H170.679V11.6197C170.679 10.8759 170.615 9.6925 169.473 9.6925C168.807 9.6925 167.791 10.132 167.791 11.6197V18.2465H166.395V11.6197C166.395 10.8759 166.332 9.6925 165.19 9.6925C164.524 9.6925 163.508 10.132 163.508 11.6197V18.2465H162.112V8.6782H162.081Z" fill="black"/>
<path d="M174.517 8.6782H175.85V9.79393H175.882C176.262 8.91486 177.182 8.40771 178.071 8.40771C179.118 8.40771 179.72 8.84725 180.006 9.92917C180.418 9.08392 181.212 8.40771 182.132 8.40771C184.511 8.40771 184.511 10.3011 184.511 11.4506V18.2465H183.115V11.6197C183.115 10.8759 183.052 9.6925 181.91 9.6925C181.243 9.6925 180.228 10.132 180.228 11.6197V18.2465H178.832V11.6197C178.832 10.8759 178.769 9.6925 177.627 9.6925C176.96 9.6925 175.945 10.132 175.945 11.6197V18.2465H174.549V8.6782H174.517Z" fill="black"/>
<path d="M188.002 13.6483C188.002 15.1359 188.002 17.3336 189.747 17.3336C191.079 17.3336 191.27 15.846 191.27 15.1021H192.666C192.666 16.1164 192.126 18.517 189.652 18.517C187.431 18.517 186.542 16.8941 186.542 13.5807C186.542 11.214 186.987 8.40771 189.747 8.40771C192.507 8.40771 192.761 10.9435 192.761 13.0397V13.6483H188.002ZM191.27 12.4649V11.9578C191.27 10.8759 190.952 9.62488 189.715 9.62488C188.224 9.62488 188.065 11.5521 188.065 12.1268V12.4987H191.27V12.4649Z" fill="black"/>
<path d="M200.533 18.2466H199.201V17.097H199.169C198.979 17.807 198.186 18.5171 197.234 18.5171C195.108 18.5171 194.283 16.4884 194.283 13.4793C194.283 11.4845 194.569 8.44161 197.107 8.44161C197.9 8.44161 198.757 8.94876 199.074 9.79402H199.106V5.53394H200.502V18.2466H200.533ZM197.392 17.2323C198.947 17.2323 199.201 15.677 199.201 13.4793C199.201 11.6198 198.915 9.7264 197.392 9.7264C196.092 9.7264 195.743 11.1802 195.743 13.4793C195.743 15.7446 196.092 17.2323 197.392 17.2323Z" fill="black"/>
<path d="M205.451 5.5H207.006L209.354 16.4545H209.385L211.733 5.5H213.288L210.274 18.2464H208.37L205.451 5.5Z" fill="black"/>
<path d="M216.048 5.5H214.557V18.2803H216.048V5.5Z" fill="black"/>
<path d="M59.8253 30.6886C59.6984 31.1958 59.3177 31.5 58.8101 31.5C57.9217 31.5 57.5093 30.7562 57.5093 29.2686C57.5093 27.7809 57.9217 27.0371 58.8101 27.0371C59.3177 27.0371 59.6667 27.3414 59.7619 27.7809V25.6509H60.2061V31.4324H59.7936V30.6886H59.8253ZM58.9053 31.0605C59.3812 31.0605 59.7936 30.8238 59.7936 29.2009C59.7936 27.6119 59.3812 27.3752 58.9053 27.3752C58.4611 27.3752 58.0169 27.6119 58.0169 29.2009C58.0486 30.8238 58.4611 31.0605 58.9053 31.0605Z" fill="black"/>
<path d="M63.5374 29.9447C63.4739 30.8575 62.998 31.4661 62.2366 31.4661C61.3799 31.4661 60.8723 30.8237 60.8723 29.2346C60.8723 27.747 61.3799 27.0032 62.2683 27.0032C63.1566 27.0032 63.5691 27.6456 63.5691 29.0994V29.2685H61.3799V29.4713C61.3799 30.7223 61.7924 31.0942 62.2366 31.0942C62.7442 31.0942 62.998 30.7223 63.0932 29.9785H63.5374V29.9447ZM63.0615 28.8627C63.0297 27.7808 62.7442 27.4089 62.2048 27.4089C61.6338 27.4089 61.3482 27.7808 61.3482 28.8627H63.0615Z" fill="black"/>
<path d="M66.0118 25.6172H67.4712C68.5182 25.6172 68.9624 26.2596 68.9624 27.2401C68.9624 28.1191 68.5499 28.863 67.3126 28.863H66.4877V31.3649H66.0118V25.6172ZM66.4877 28.4572H67.3126C67.9471 28.4572 68.4547 28.153 68.4547 27.2739C68.4547 26.3948 68.0423 26.0905 67.3126 26.0905H66.4877V28.4572Z" fill="black"/>
<path d="M69.6289 27.1046H70.0731V27.7808C70.2635 27.3075 70.6125 27.0032 71.0884 27.0032C71.1518 27.0032 71.1835 27.0032 71.247 27.037V27.5103C71.1835 27.5103 71.0884 27.4765 71.0249 27.4765C70.5173 27.4765 70.0414 27.8484 70.0414 28.6937V31.3647H69.5972V27.1046H69.6289Z" fill="black"/>
<path d="M72.8645 27.0032C73.7529 27.0032 74.2605 27.747 74.2605 29.2346C74.2605 30.7561 73.7529 31.4661 72.8645 31.4661C71.9762 31.4661 71.4686 30.7223 71.4686 29.2346C71.4686 27.747 71.9762 27.0032 72.8645 27.0032ZM72.8645 31.0604C73.3722 31.0604 73.7529 30.5871 73.7529 29.2008C73.7529 27.8484 73.3722 27.3751 72.8645 27.3751C72.3569 27.3751 71.9762 27.8484 71.9762 29.2008C71.9762 30.6209 72.3569 31.0604 72.8645 31.0604Z" fill="black"/>
<path d="M74.9274 27.1046H75.3398V27.7132C75.5619 27.2398 75.9109 27.0032 76.3551 27.0032C76.831 27.0032 77.1482 27.3075 77.2117 27.747C77.402 27.2737 77.7193 27.0032 78.2269 27.0032C78.798 27.0032 79.147 27.3413 79.147 28.1189V31.3985H78.7028V28.1865C78.7028 27.6794 78.4808 27.4089 78.0683 27.4089C77.6241 27.4089 77.2434 27.8484 77.2434 28.4908V31.3647H76.7992V28.1527C76.7992 27.6456 76.5771 27.3751 76.1647 27.3751C75.7205 27.3751 75.3398 27.8146 75.3398 28.457V31.3309H74.8956V27.1046H74.9274Z" fill="black"/>
<path d="M81.2092 27.0032C82.0976 27.0032 82.6052 27.747 82.6052 29.2346C82.6052 30.7561 82.0976 31.4661 81.2092 31.4661C80.3209 31.4661 79.8132 30.7223 79.8132 29.2346C79.845 27.747 80.3209 27.0032 81.2092 27.0032ZM81.2092 31.0604C81.7168 31.0604 82.0976 30.5871 82.0976 29.2008C82.0976 27.8484 81.7168 27.3751 81.2092 27.3751C80.7016 27.3751 80.3209 27.8484 80.3209 29.2008C80.3209 30.6209 80.7016 31.0604 81.2092 31.0604Z" fill="black"/>
<path d="M83.3983 27.5103H82.8589V27.1046H83.3983V25.8875H83.8425V27.0708H84.5405V27.4765H83.8425V30.5533C83.8425 30.8914 83.9694 30.9928 84.2867 30.9928C84.3818 30.9928 84.477 30.9928 84.5722 30.959V31.3647C84.5087 31.3985 84.4136 31.3985 84.2549 31.3985C83.6521 31.3985 83.3983 31.2295 83.3983 30.6547V27.5103Z" fill="black"/>
<path d="M85.0482 25.6172H85.4923V26.4286H85.0482V25.6172ZM85.0482 27.1048H85.4923V31.3987H85.0482V27.1048Z" fill="black"/>
<path d="M87.5545 27.0032C88.4428 27.0032 88.9505 27.747 88.9505 29.2346C88.9505 30.7561 88.4428 31.4661 87.5545 31.4661C86.6661 31.4661 86.1585 30.7223 86.1585 29.2346C86.1902 27.747 86.6661 27.0032 87.5545 27.0032ZM87.5545 31.0604C88.0621 31.0604 88.4428 30.5871 88.4428 29.2008C88.4428 27.8484 88.0621 27.3751 87.5545 27.3751C87.0469 27.3751 86.6661 27.8484 86.6661 29.2008C86.6661 30.6209 87.0469 31.0604 87.5545 31.0604Z" fill="black"/>
<path d="M89.585 27.1046H89.9975V27.7132C90.2196 27.2398 90.6003 27.0032 91.0127 27.0032C91.6155 27.0032 92.0597 27.3413 92.0597 28.1527V31.3985H91.6155V28.288C91.6155 27.7132 91.3935 27.4089 90.9176 27.4089C90.3782 27.4089 90.0292 27.8484 90.0292 28.4908V31.3647H89.585V27.1046Z" fill="black"/>
<path d="M96.8187 30.6886C96.6918 31.1958 96.3111 31.5 95.8034 31.5C94.9151 31.5 94.5026 30.7562 94.5026 29.2686C94.5026 27.7809 94.9151 27.0371 95.8034 27.0371C96.3111 27.0371 96.66 27.3414 96.7552 27.7809V25.6509H97.1994V31.4324H96.787V30.6886H96.8187ZM95.8986 31.0605C96.3745 31.0605 96.787 30.8238 96.787 29.2009C96.787 27.6119 96.3745 27.3752 95.8986 27.3752C95.4544 27.3752 95.0103 27.6119 95.0103 29.2009C95.0103 30.8238 95.4227 31.0605 95.8986 31.0605Z" fill="black"/>
<path d="M100.499 29.9447C100.436 30.8575 99.9599 31.4661 99.1985 31.4661C98.3418 31.4661 97.8342 30.8237 97.8342 29.2346C97.8342 27.747 98.3418 27.0032 99.2302 27.0032C100.119 27.0032 100.531 27.6456 100.531 29.0994V29.2685H98.3418V29.4713C98.3418 30.7223 98.7543 31.0942 99.1985 31.0942C99.7061 31.0942 99.9599 30.7223 100.055 29.9785H100.499V29.9447ZM100.055 28.8627C100.023 27.7808 99.7378 27.4089 99.1985 27.4089C98.6274 27.4089 98.3418 27.7808 98.3418 28.8627H100.055Z" fill="black"/>
<path d="M101.863 29.2348C101.292 28.9981 101.102 28.66 101.102 28.2205C101.102 27.3414 101.61 26.9695 102.308 26.9695C103.069 26.9695 103.418 27.3752 103.418 28.1528V28.2881H102.974V28.1528C102.974 27.6119 102.752 27.3752 102.308 27.3752C101.768 27.3752 101.578 27.6795 101.578 28.119C101.578 28.4233 101.673 28.66 102.117 28.829L102.784 29.0995C103.323 29.3024 103.545 29.7081 103.545 30.1815C103.545 30.9253 103.164 31.4662 102.308 31.4662C101.483 31.4662 101.07 31.0943 101.07 30.1476V30.0124H101.514V30.1138C101.514 30.7562 101.768 31.0605 102.276 31.0605C102.752 31.0605 103.069 30.79 103.069 30.2829C103.069 29.911 102.91 29.6743 102.53 29.5052L101.863 29.2348Z" fill="black"/>
<path d="M108.589 25.6172H111.159V26.0567H109.065V28.153H111V28.5925H109.065V30.9592H111.223V31.3987H108.589V30.8916C108.431 31.2973 108.018 31.5002 107.542 31.5002C106.432 31.5002 105.829 30.5873 105.829 28.5249C105.829 26.4624 106.432 25.5496 107.542 25.5496C108.113 25.5496 108.399 25.7524 108.589 26.1243V25.6172ZM108.589 27.4091C108.589 26.2934 108.272 25.9553 107.542 25.9553C106.781 25.9553 106.305 26.6315 106.305 28.4911C106.305 30.3506 106.781 31.0268 107.542 31.0268C108.304 31.0268 108.589 30.5873 108.589 29.4377V27.4091Z" fill="black"/>
<path d="M111.762 27.1049H112.206V30.114C112.206 30.824 112.428 31.0606 112.904 31.0606C113.412 31.0606 113.793 30.6211 113.793 29.9449V27.071H114.237V31.3649H113.824V30.7564C113.602 31.2297 113.221 31.4664 112.777 31.4664C112.174 31.4664 111.762 31.1283 111.762 30.3168V27.1049Z" fill="black"/>
<path d="M114.712 27.1047H115.188L116.077 30.8239H116.108L116.933 27.1047H117.409L116.362 31.3986H115.823L114.712 27.1047Z" fill="black"/>
<path d="M117.853 27.1046H118.297V27.7808C118.488 27.3075 118.837 27.0032 119.313 27.0032C119.376 27.0032 119.408 27.0032 119.471 27.037V27.5103C119.408 27.5103 119.313 27.4765 119.249 27.4765C118.742 27.4765 118.266 27.8484 118.266 28.6937V31.3647H117.821V27.1046H117.853Z" fill="black"/>
<path d="M122.422 29.9447C122.358 30.8575 121.883 31.4661 121.121 31.4661C120.264 31.4661 119.757 30.8237 119.757 29.2346C119.757 27.747 120.264 27.0032 121.153 27.0032C122.041 27.0032 122.454 27.6456 122.454 29.0994V29.2685H120.264V29.4713C120.264 30.7223 120.677 31.0942 121.121 31.0942C121.629 31.0942 121.883 30.7223 121.978 29.9785H122.422V29.9447ZM121.978 28.8627C121.946 27.7808 121.66 27.4089 121.121 27.4089C120.55 27.4089 120.264 27.7808 120.264 28.8627H121.978Z" fill="black"/>
<path d="M123.755 29.2348C123.184 28.9981 122.993 28.66 122.993 28.2205C122.993 27.3414 123.501 26.9695 124.199 26.9695C124.96 26.9695 125.309 27.3752 125.309 28.1528V28.2881H124.865V28.1528C124.865 27.6119 124.643 27.3752 124.199 27.3752C123.659 27.3752 123.469 27.6795 123.469 28.119C123.469 28.4233 123.564 28.66 124.008 28.829L124.675 29.0995C125.214 29.3024 125.436 29.7081 125.436 30.1815C125.436 30.9253 125.055 31.4662 124.199 31.4662C123.374 31.4662 122.961 31.0943 122.961 30.1476V30.0124H123.406V30.1138C123.406 30.7562 123.659 31.0605 124.167 31.0605C124.643 31.0605 124.96 30.79 124.96 30.2829C124.96 29.911 124.802 29.6743 124.421 29.5052L123.755 29.2348Z" fill="black"/>
<path d="M130.195 27.1048C130.195 26.3948 129.878 25.9553 129.212 25.9553C128.546 25.9553 128.197 26.4286 128.197 27.0034C128.197 28.7277 130.83 27.781 130.83 29.8096C130.83 30.9254 130.164 31.5002 129.18 31.5002C128.165 31.5002 127.594 30.9254 127.594 29.7758V29.6068H128.07V29.8096C128.07 30.5535 128.419 31.0268 129.148 31.0268C129.846 31.0268 130.322 30.6549 130.322 29.8435C130.322 28.1191 127.689 29.0996 127.689 27.0034C127.689 26.0905 128.228 25.4819 129.18 25.4819C130.195 25.4819 130.64 26.0229 130.64 27.071H130.195V27.1048Z" fill="black"/>
<path d="M132.607 27.0032C133.495 27.0032 134.003 27.747 134.003 29.2346C134.003 30.7561 133.495 31.4661 132.607 31.4661C131.718 31.4661 131.211 30.7223 131.211 29.2346C131.211 27.747 131.718 27.0032 132.607 27.0032ZM132.607 31.0604C133.114 31.0604 133.495 30.5871 133.495 29.2008C133.495 27.8484 133.114 27.3751 132.607 27.3751C132.099 27.3751 131.718 27.8484 131.718 29.2008C131.687 30.6209 132.099 31.0604 132.607 31.0604Z" fill="black"/>
<path d="M137.048 29.9447C136.985 30.8575 136.509 31.4661 135.779 31.4661C134.922 31.4661 134.415 30.8237 134.415 29.2346C134.415 27.747 134.922 27.0032 135.811 27.0032C136.572 27.0032 137.016 27.5103 137.048 28.3894H136.604C136.54 27.7132 136.287 27.4089 135.811 27.4089C135.303 27.4089 134.922 27.747 134.922 29.2346C134.922 30.8575 135.367 31.0604 135.779 31.0604C136.255 31.0604 136.54 30.6885 136.604 29.9447H137.048Z" fill="black"/>
<path d="M137.683 25.6172H138.127V26.4286H137.683V25.6172ZM137.683 27.1048H138.127V31.3987H137.683V27.1048Z" fill="black"/>
<path d="M138.952 28.3557C138.952 27.4766 139.332 26.9695 140.189 26.9695C141.014 26.9695 141.331 27.4428 141.331 28.119V30.6548C141.331 30.8915 141.395 31.0267 141.553 31.0267H141.68V31.3986C141.585 31.4324 141.521 31.4324 141.458 31.4324C141.109 31.4324 140.887 31.331 140.887 30.8915V30.7562C140.697 31.331 140.316 31.4662 139.84 31.4662C139.142 31.4662 138.825 30.9929 138.825 30.2491C138.825 29.6743 139.047 29.2348 139.65 29.0657L140.506 28.7952C140.823 28.6938 140.887 28.5924 140.887 28.119C140.887 27.5781 140.601 27.3752 140.189 27.3752C139.65 27.3752 139.427 27.7133 139.427 28.3557H138.952ZM140.855 28.9643C140.792 29.1333 140.538 29.2009 140.348 29.2348L139.967 29.3362C139.523 29.4714 139.269 29.7081 139.269 30.2153C139.269 30.7224 139.523 31.0605 139.903 31.0605C140.443 31.0605 140.823 30.621 140.823 29.8433V28.9643H140.855Z" fill="black"/>
<path d="M142.696 25.6172H142.252V31.3987H142.696V25.6172Z" fill="black"/>
<path d="M146.059 29.9447C145.996 30.8575 145.52 31.4661 144.758 31.4661C143.902 31.4661 143.394 30.8237 143.394 29.2346C143.394 27.747 143.902 27.0032 144.79 27.0032C145.678 27.0032 146.091 27.6456 146.091 29.0994V29.2685H143.902V29.4713C143.902 30.7223 144.314 31.0942 144.758 31.0942C145.266 31.0942 145.52 30.7223 145.615 29.9785H146.059V29.9447ZM145.615 28.8627C145.583 27.7808 145.298 27.4089 144.758 27.4089C144.187 27.4089 143.902 27.7808 143.902 28.8627H145.615Z" fill="black"/>
<path d="M147.392 29.2348C146.821 28.9981 146.63 28.66 146.63 28.2205C146.63 27.3414 147.138 26.9695 147.836 26.9695C148.597 26.9695 148.946 27.3752 148.946 28.1528V28.2881H148.47V28.1528C148.47 27.6119 148.248 27.3752 147.804 27.3752C147.265 27.3752 147.074 27.6795 147.074 28.119C147.074 28.4233 147.17 28.66 147.614 28.829L148.28 29.0995C148.819 29.3024 149.041 29.7081 149.041 30.1815C149.041 30.9253 148.661 31.4662 147.804 31.4662C146.979 31.4662 146.567 31.0943 146.567 30.1476V30.0124H147.011V30.1138C147.011 30.7562 147.265 31.0605 147.772 31.0605C148.248 31.0605 148.565 30.79 148.565 30.2829C148.565 29.911 148.407 29.6743 148.026 29.5052L147.392 29.2348Z" fill="black"/>
<path d="M153.578 30.6886C153.451 31.1958 153.07 31.5 152.563 31.5C151.674 31.5 151.262 30.7562 151.262 29.2686C151.262 27.7809 151.674 27.0371 152.563 27.0371C153.07 27.0371 153.419 27.3414 153.515 27.7809V25.6509H153.959V31.4324H153.546V30.6886H153.578ZM152.658 31.0605C153.134 31.0605 153.546 30.8238 153.546 29.2009C153.546 27.6119 153.134 27.3752 152.658 27.3752C152.214 27.3752 151.77 27.6119 151.77 29.2009C151.77 30.8238 152.214 31.0605 152.658 31.0605Z" fill="black"/>
<path d="M157.259 29.9447C157.195 30.8575 156.719 31.4661 155.958 31.4661C155.101 31.4661 154.594 30.8237 154.594 29.2346C154.594 27.747 155.101 27.0032 155.989 27.0032C156.878 27.0032 157.29 27.6456 157.29 29.0994V29.2685H155.101V29.4713C155.101 30.7223 155.514 31.0942 155.958 31.0942C156.465 31.0942 156.719 30.7223 156.814 29.9785H157.259V29.9447ZM156.814 28.8627C156.783 27.7808 156.497 27.4089 155.958 27.4089C155.387 27.4089 155.101 27.7808 155.101 28.8627H156.814Z" fill="black"/>
<path d="M160.24 25.6172H159.796V31.3987H160.24V25.6172Z" fill="black"/>
<path d="M161.351 25.6172H161.859V26.4286C161.859 26.902 161.763 27.3415 161.288 27.5444V27.2063C161.478 27.071 161.541 26.8682 161.541 26.4286H161.319V25.6172H161.351Z" fill="black"/>
<path d="M162.874 25.6172H165.57V26.0567H163.381V28.1529H165.443V28.5925H163.381V30.9592H165.634V31.3987H162.874V25.6172ZM165.126 24.0957L164.396 25.2452H164.016L164.587 24.0957H165.126Z" fill="black"/>
<path d="M168.362 30.6886C168.235 31.1958 167.855 31.5 167.347 31.5C166.459 31.5 166.046 30.7562 166.046 29.2686C166.046 27.7809 166.459 27.0371 167.347 27.0371C167.855 27.0371 168.204 27.3414 168.299 27.7809V25.6509H168.743V31.4324H168.331V30.6886H168.362ZM167.442 31.0605C167.918 31.0605 168.331 30.8238 168.331 29.2009C168.331 27.6119 167.918 27.3752 167.442 27.3752C166.998 27.3752 166.554 27.6119 166.554 29.2009C166.554 30.8238 166.966 31.0605 167.442 31.0605Z" fill="black"/>
<path d="M169.569 27.1049H170.013V30.114C170.013 30.824 170.235 31.0606 170.711 31.0606C171.218 31.0606 171.599 30.6211 171.599 29.9449V27.071H172.043V31.3649H171.631V30.7564C171.409 31.2297 171.028 31.4664 170.584 31.4664C169.981 31.4664 169.537 31.1283 169.537 30.3168V27.1049H169.569Z" fill="black"/>
<path d="M175.311 29.9447C175.248 30.8575 174.772 31.4661 174.042 31.4661C173.186 31.4661 172.678 30.8237 172.678 29.2346C172.678 27.747 173.186 27.0032 174.074 27.0032C174.835 27.0032 175.28 27.5103 175.311 28.3894H174.867C174.804 27.7132 174.55 27.4089 174.074 27.4089C173.566 27.4089 173.186 27.747 173.186 29.2346C173.186 30.8575 173.63 31.0604 174.042 31.0604C174.518 31.0604 174.804 30.6885 174.867 29.9447H175.311Z" fill="black"/>
<path d="M175.85 28.3557C175.85 27.4766 176.231 26.9695 177.087 26.9695C177.912 26.9695 178.23 27.4428 178.23 28.119V30.6548C178.23 30.8915 178.293 31.0267 178.452 31.0267H178.579V31.3986C178.483 31.4324 178.42 31.4324 178.356 31.4324C178.007 31.4324 177.785 31.331 177.785 30.8915V30.7562C177.595 31.331 177.214 31.4662 176.738 31.4662C176.04 31.4662 175.723 30.9929 175.723 30.2491C175.723 29.6743 175.945 29.2348 176.548 29.0657L177.405 28.7952C177.722 28.6938 177.785 28.5924 177.785 28.119C177.785 27.5781 177.5 27.3752 177.087 27.3752C176.548 27.3752 176.326 27.7133 176.326 28.3557H175.85ZM177.785 28.9643C177.722 29.1333 177.468 29.2009 177.278 29.2348L176.897 29.3362C176.453 29.4714 176.199 29.7081 176.199 30.2153C176.199 30.7224 176.453 31.0605 176.834 31.0605C177.373 31.0605 177.754 30.621 177.754 29.8433V28.9643H177.785Z" fill="black"/>
<path d="M179.34 27.5103H178.801V27.1046H179.34V25.8875H179.784V27.0708H180.482V27.4765H179.784V30.5533C179.784 30.8914 179.911 30.9928 180.229 30.9928C180.324 30.9928 180.419 30.9928 180.514 30.959V31.3647C180.451 31.3985 180.355 31.3985 180.197 31.3985C179.594 31.3985 179.34 31.2295 179.34 30.6547V27.5103Z" fill="black"/>
<path d="M180.99 25.6172H181.434V26.4286H180.99V25.6172ZM180.99 27.1048H181.434V31.3987H180.99V27.1048Z" fill="black"/>
<path d="M183.496 27.0032C184.385 27.0032 184.892 27.747 184.892 29.2346C184.892 30.7561 184.385 31.4661 183.496 31.4661C182.608 31.4661 182.1 30.7223 182.1 29.2346C182.1 27.747 182.608 27.0032 183.496 27.0032ZM183.496 31.0604C184.004 31.0604 184.385 30.5871 184.385 29.2008C184.385 27.8484 184.004 27.3751 183.496 27.3751C182.989 27.3751 182.608 27.8484 182.608 29.2008C182.576 30.6209 182.957 31.0604 183.496 31.0604Z" fill="black"/>
<path d="M185.495 27.1046H185.907V27.7132C186.129 27.2398 186.51 27.0032 186.954 27.0032C187.557 27.0032 187.97 27.3413 187.97 28.1527V31.3985H187.525V28.288C187.525 27.7132 187.303 27.4089 186.827 27.4089C186.288 27.4089 185.939 27.8484 185.939 28.4908V31.3647H185.495V27.1046Z" fill="black"/>
<path d="M190.476 28.8628H188.826V29.3023H190.476V28.8628Z" fill="black"/>
<path d="M191.302 25.6172H193.998V26.0567H191.777V28.153H193.84V28.5925H191.777V31.3987H191.302V25.6172Z" fill="black"/>
<path d="M195.679 27.0032C196.568 27.0032 197.075 27.747 197.075 29.2346C197.075 30.7561 196.568 31.4661 195.679 31.4661C194.791 31.4661 194.283 30.7223 194.283 29.2346C194.283 27.747 194.791 27.0032 195.679 27.0032ZM195.679 31.0604C196.187 31.0604 196.568 30.5871 196.568 29.2008C196.568 27.8484 196.187 27.3751 195.679 27.3751C195.172 27.3751 194.791 27.8484 194.791 29.2008C194.791 30.6209 195.172 31.0604 195.679 31.0604Z" fill="black"/>
<path d="M197.71 27.1046H198.154V27.7808C198.313 27.3075 198.694 27.0032 199.169 27.0032C199.233 27.0032 199.265 27.0032 199.328 27.037V27.5103C199.265 27.5103 199.169 27.4765 199.106 27.4765C198.598 27.4765 198.122 27.8484 198.122 28.6937V31.3647H197.678V27.1046H197.71Z" fill="black"/>
<path d="M199.804 27.1046H200.216V27.7132C200.438 27.2398 200.787 27.0032 201.231 27.0032C201.707 27.0032 202.025 27.3075 202.088 27.747C202.278 27.2737 202.596 27.0032 203.103 27.0032C203.674 27.0032 204.023 27.3413 204.023 28.1189V31.3985H203.579V28.1865C203.579 27.6794 203.357 27.4089 202.945 27.4089C202.501 27.4089 202.12 27.8484 202.12 28.4908V31.3647H201.676V28.1527C201.676 27.6456 201.454 27.3751 201.041 27.3751C200.597 27.3751 200.216 27.8146 200.216 28.457V31.3309H199.772V27.1046H199.804Z" fill="black"/>
<path d="M204.848 28.3557C204.848 27.4766 205.229 26.9695 206.085 26.9695C206.91 26.9695 207.228 27.4428 207.228 28.119V30.6548C207.228 30.8915 207.291 31.0267 207.45 31.0267H207.577V31.3986C207.481 31.4324 207.418 31.4324 207.354 31.4324C207.005 31.4324 206.783 31.331 206.783 30.8915V30.7562C206.593 31.331 206.212 31.4662 205.736 31.4662C205.038 31.4662 204.721 30.9929 204.721 30.2491C204.721 29.6743 204.943 29.2348 205.546 29.0657L206.403 28.7952C206.72 28.6938 206.783 28.5924 206.783 28.119C206.783 27.5781 206.498 27.3752 206.085 27.3752C205.546 27.3752 205.324 27.7133 205.324 28.3557H204.848ZM206.783 28.9643C206.72 29.1333 206.466 29.2009 206.276 29.2348L205.895 29.3362C205.451 29.4714 205.197 29.7081 205.197 30.2153C205.197 30.7224 205.451 31.0605 205.832 31.0605C206.371 31.0605 206.752 30.621 206.752 29.8433V28.9643H206.783Z" fill="black"/>
<path d="M208.339 27.5103H207.799V27.1046H208.339V25.8875H208.783V27.0708H209.481V27.4765H208.783V30.5533C208.783 30.8914 208.91 30.9928 209.227 30.9928C209.322 30.9928 209.417 30.9928 209.513 30.959V31.3647C209.449 31.3985 209.354 31.3985 209.195 31.3985C208.593 31.3985 208.339 31.2295 208.339 30.6547V27.5103Z" fill="black"/>
<path d="M209.988 25.6172H210.432V26.4286H209.988V25.6172ZM209.988 27.1048H210.432V31.3987H209.988V27.1048Z" fill="black"/>
<path d="M212.494 27.0032C213.383 27.0032 213.89 27.747 213.89 29.2346C213.89 30.7561 213.383 31.4661 212.494 31.4661C211.606 31.4661 211.098 30.7223 211.098 29.2346C211.098 27.747 211.606 27.0032 212.494 27.0032ZM212.494 31.0604C213.002 31.0604 213.383 30.5871 213.383 29.2008C213.383 27.8484 213.002 27.3751 212.494 27.3751C211.987 27.3751 211.606 27.8484 211.606 29.2008C211.574 30.6209 211.955 31.0604 212.494 31.0604Z" fill="black"/>
<path d="M214.493 27.1046H214.906V27.7132C215.128 27.2398 215.509 27.0032 215.953 27.0032C216.556 27.0032 217 27.3413 217 28.1527V31.3985H216.556V28.288C216.556 27.7132 216.334 27.4089 215.858 27.4089C215.318 27.4089 214.969 27.8484 214.969 28.4908V31.3647H214.525V27.1046H214.493Z" fill="black"/>
<path d="M11.9077 28.4828C23.601 20.6942 31.9658 3.40122 48.825 3.46895C30.6473 6.33606 23.0391 35.7747 1.23016 32.0497C-3.48177 31.4853 6.48245 32.7496 11.9077 28.4828Z" fill="#822C41"/>
</svg>
