<svg width="24" height="24" viewBox="0 0 24 24" fill="none" xmlns="http://www.w3.org/2000/svg">
<mask id="mask0_55822_15696" style="mask-type:luminance" maskUnits="userSpaceOnUse" x="0" y="0" width="24" height="24">
<path d="M0 1.90735e-06H24V24H0V1.90735e-06Z" fill="white"/>
</mask>
<g mask="url(#mask0_55822_15696)">
<path d="M12 0.351564C7.14591 0.351564 3.21094 4.28653 3.21094 9.14063C3.21094 11.0612 3.82739 12.8376 4.87261 14.2836L11.4307 23.3567C11.5584 23.5332 11.7655 23.6484 12 23.6484C12.2345 23.6484 12.4416 23.5332 12.5693 23.3567L19.1274 14.2836C20.1726 12.8376 20.7891 11.0612 20.7891 9.14063C20.7891 4.28653 16.8541 0.351564 12 0.351564Z" stroke="#4E4446" stroke-width="0.8" stroke-miterlimit="10" stroke-linecap="round" stroke-linejoin="round"/>
<path d="M10.2534 8.94412C10.2462 9.00867 10.2422 9.07416 10.2422 9.14062C10.2422 10.1115 11.0292 10.8984 12 10.8984C12.9708 10.8984 13.7578 10.1115 13.7578 9.14062C13.7578 8.1698 12.9708 7.38281 12 7.38281C11.6092 7.38281 11.2483 7.51055 10.9564 7.72627" stroke="#4E4446" stroke-width="0.8" stroke-miterlimit="10" stroke-linecap="round" stroke-linejoin="round"/>
<path d="M15.1103 9.71859C15.1449 9.53109 15.164 9.33811 15.164 9.14062C15.164 8.94314 15.1449 8.75011 15.1103 8.56266L15.6443 7.84842C15.5665 7.62989 15.4691 7.41506 15.349 7.20703C15.2288 6.99895 15.0915 6.80719 14.9412 6.63056L14.0552 6.73613C13.7629 6.48595 13.4247 6.28814 13.0546 6.15731L12.703 5.33841C12.4748 5.29645 12.2401 5.27344 11.9999 5.27344C11.7597 5.27344 11.5249 5.29645 11.2968 5.33841L10.9452 6.15731C10.5751 6.28814 10.2368 6.48595 9.94453 6.73613L9.05859 6.63056C8.90822 6.80719 8.77092 6.99895 8.65078 7.20703C8.53069 7.41506 8.43328 7.62989 8.35547 7.84842L8.88942 8.56266C8.85483 8.75011 8.83584 8.94314 8.83584 9.14062C8.83584 9.33811 8.85483 9.53109 8.88942 9.71859L8.35547 10.4328C8.43328 10.6513 8.53069 10.8661 8.65078 11.0742C8.77092 11.2823 8.90822 11.4741 9.05859 11.6506L9.94453 11.5451C10.2368 11.7953 10.5751 11.9931 10.9452 12.1239L11.2968 12.9428C11.5249 12.9848 11.7597 13.0078 11.9999 13.0078C12.2401 13.0078 12.4748 12.9848 12.703 12.9428L13.0546 12.1239C13.4247 11.9931 13.7629 11.7953 14.0552 11.5451L14.9412 11.6506C15.0915 11.4741 15.2288 11.2823 15.349 11.0742C15.4691 10.8661 15.5665 10.6513 15.6443 10.4328L15.1103 9.71859Z" stroke="#4E4446" stroke-width="0.8" stroke-miterlimit="10" stroke-linecap="round" stroke-linejoin="round"/>
<path d="M17.2734 9.14062C17.2734 12.0531 14.9124 14.4141 12 14.4141C9.08756 14.4141 6.72656 12.0531 6.72656 9.14062C6.72656 6.22819 9.08756 3.86719 12 3.86719C14.9124 3.86719 17.2734 6.22819 17.2734 9.14062Z" stroke="#4E4446" stroke-width="0.8" stroke-miterlimit="10" stroke-linecap="round" stroke-linejoin="round"/>
</g>
</svg>
