<svg width="22" height="20" viewBox="0 0 22 20" fill="none" xmlns="http://www.w3.org/2000/svg">
<path fill-rule="evenodd" clip-rule="evenodd" d="M16.6434 14.2518C18.0384 14.4666 19.7821 14.3489 20.813 13.9064C21.4906 13.6154 21.875 13.1684 21.875 12.6516C21.875 11.8435 21.5938 11.0965 21.1171 10.4946C20.9885 10.3327 20.7526 10.3049 20.5903 10.4335C20.4279 10.5622 20.4005 10.798 20.5291 10.9604C20.9026 11.4325 21.125 12.0179 21.125 12.6516C21.125 12.7975 21.0241 12.9104 20.8846 13.0139C20.669 13.1737 20.3619 13.2955 20.0045 13.3897C18.875 13.687 17.2651 13.6859 16.1431 13.384C15.8427 12.9543 15.4843 12.5647 15.0778 12.2245C15.2986 10.8513 16.5661 9.80577 18.0845 9.80577C18.719 9.80577 19.3089 9.98802 19.7979 10.3011C19.9719 10.4125 20.204 10.3619 20.3158 10.1875C20.4275 10.0132 20.3765 9.78103 20.2021 9.66965C19.9685 9.51965 19.7161 9.39402 19.4487 9.29615C19.8886 8.91403 20.1672 8.35077 20.1672 7.72302C20.1672 6.57327 19.2339 5.6399 18.0845 5.6399C17.7942 5.6399 17.5183 5.69952 17.2674 5.80677C16.8361 5.18615 16.2069 4.6979 15.4636 4.42565C15.9039 4.04352 16.1821 3.48028 16.1821 2.85253C16.1821 1.70278 15.2491 0.769775 14.0994 0.769775C12.95 0.769775 12.0166 1.70278 12.0166 2.85253C12.0166 3.48028 12.2949 4.04352 12.7351 4.42565C12.3346 4.57227 11.9671 4.78152 11.6461 5.04065C11.2197 4.95515 10.7803 4.95515 10.3539 5.04065C10.0329 4.78152 9.66537 4.57227 9.26487 4.42565C9.70512 4.04352 9.98337 3.48028 9.98337 2.85253C9.98337 1.70278 9.05 0.769775 7.90063 0.769775C6.75088 0.769775 5.81787 1.70278 5.81787 2.85253C5.81787 3.48028 6.09613 4.04352 6.53638 4.42565C5.79313 4.69827 5.1635 5.18615 4.73263 5.80677C4.48175 5.69952 4.20575 5.6399 3.9155 5.6399C2.76612 5.6399 1.83275 6.57327 1.83275 7.72302C1.83275 8.35077 2.111 8.91403 2.55125 9.29615C1.13 9.81703 0.125 11.1273 0.125 12.6516C0.125 13.1684 0.509375 13.6154 1.187 13.9064C2.21788 14.3489 3.96163 14.4666 5.35663 14.2518C5.0225 14.9699 4.83725 15.763 4.83725 16.5963C4.83725 17.1711 5.15188 17.6718 5.72262 18.0712C5.89213 18.19 6.12612 18.1484 6.24463 17.9789C6.3635 17.8094 6.32225 17.5754 6.15238 17.4569C5.81075 17.2177 5.58725 16.9401 5.58725 16.5963C5.58725 13.7849 8.01837 11.5135 11 11.5135C13.9816 11.5135 16.4128 13.7849 16.4128 16.5963C16.4128 16.8993 16.2369 17.1513 15.962 17.371C15.6192 17.6452 15.1299 17.8627 14.5531 18.0337C12.7156 18.5774 10.0194 18.6254 8.02362 18.1818C7.8215 18.1368 7.62087 18.2646 7.57587 18.4664C7.53125 18.6685 7.65875 18.8691 7.86088 18.9138C10.3325 19.4635 13.8155 19.288 15.6834 18.4102C16.6182 17.971 17.1628 17.3418 17.1628 16.5963C17.1628 15.763 16.9775 14.9699 16.6434 14.2518ZM6.92225 12.2245C6.70138 10.8513 5.43388 9.80577 3.9155 9.80577C2.24337 9.80577 0.875 11.0748 0.875 12.6516C0.875 12.7975 0.975875 12.9104 1.11537 13.0139C1.331 13.1737 1.63812 13.2955 1.9955 13.3897C3.125 13.687 4.73487 13.6859 5.85687 13.384C6.15725 12.9547 6.51575 12.5647 6.92225 12.2245ZM7.97675 9.4889C7.05912 9.49565 6.1355 9.3764 5.44213 9.1394C5.39075 9.19453 5.33675 9.24665 5.28012 9.29615C6.4085 9.71015 7.27475 10.6214 7.58375 11.7423C8.08962 11.4224 8.64875 11.1711 9.24575 11.0035C9.04737 10.8775 8.85988 10.7279 8.687 10.5547C8.37275 10.24 8.13575 9.87665 7.97675 9.4889ZM16.7199 9.29615C16.6632 9.24665 16.6089 9.19453 16.5579 9.1394C15.8645 9.3764 14.9405 9.49565 14.0233 9.48927C13.8635 9.87778 13.6257 10.2423 13.31 10.5576C13.1379 10.7294 12.9515 10.8783 12.7543 11.0035C13.3513 11.1711 13.91 11.422 14.4163 11.7423C14.7253 10.6214 15.5915 9.70977 16.7199 9.29615ZM16.6419 6.22077C16.097 5.4449 15.1602 4.93528 14.0994 4.93528C13.5215 4.93528 12.9804 5.0864 12.5195 5.34965C12.8049 5.49965 13.073 5.69465 13.313 5.93503C13.4592 6.08128 13.4589 6.31903 13.3126 6.46528C13.166 6.61153 12.9286 6.61115 12.7824 6.4649C11.7999 5.48127 10.2039 5.48015 9.22025 6.46265C8.23625 7.44478 8.2355 9.04115 9.21762 10.0248C10.2001 11.0084 11.7961 11.0095 12.7797 10.027C13.5301 9.27778 13.7086 8.17152 13.3156 7.25202C13.2343 7.0619 13.3224 6.84102 13.5129 6.75965C13.703 6.67827 13.9235 6.76677 14.0049 6.9569C14.2464 7.52165 14.3218 8.1404 14.231 8.7389C14.9191 8.7299 15.5994 8.64665 16.1454 8.48503C16.0528 8.24878 16.0014 7.9919 16.0014 7.72302C16.0014 7.13315 16.2474 6.5999 16.6419 6.22077ZM18.0845 6.3899C18.8199 6.3899 19.4172 6.98727 19.4172 7.72302C19.4172 8.4584 18.8199 9.05577 18.0845 9.05577C17.3487 9.05577 16.7514 8.4584 16.7514 7.72302C16.7514 6.98727 17.3487 6.3899 18.0845 6.3899ZM3.9155 6.3899C4.65125 6.3899 5.24862 6.98727 5.24862 7.72302C5.24862 8.4584 4.65125 9.05577 3.9155 9.05577C3.18012 9.05577 2.58275 8.4584 2.58275 7.72302C2.58275 6.98727 3.18012 6.3899 3.9155 6.3899ZM9.4805 5.34965C9.01962 5.0864 8.4785 4.93528 7.90063 4.93528C6.83975 4.93528 5.903 5.4449 5.35812 6.22077C5.75262 6.5999 5.99862 7.13315 5.99862 7.72302C5.99862 7.9919 5.94762 8.24878 5.85462 8.48503C6.40062 8.64665 7.08088 8.7299 7.769 8.7389C7.61825 7.74515 7.92537 6.69552 8.69 5.93202C8.92925 5.69315 9.19625 5.4989 9.4805 5.34965ZM14.0994 1.51978C14.8351 1.51978 15.4321 2.11678 15.4321 2.85253C15.4321 3.5879 14.8351 4.18528 14.0994 4.18528C13.3636 4.18528 12.7666 3.5879 12.7666 2.85253C12.7666 2.11678 13.3636 1.51978 14.0994 1.51978ZM7.90063 1.51978C8.63638 1.51978 9.23337 2.11678 9.23337 2.85253C9.23337 3.5879 8.63638 4.18528 7.90063 4.18528C7.16488 4.18528 6.56787 3.5879 6.56787 2.85253C6.56787 2.11678 7.16488 1.51978 7.90063 1.51978Z" fill="#49454F"/>
<path d="M6.90839 18.625C7.11549 18.625 7.28339 18.4571 7.28339 18.25C7.28339 18.0429 7.11549 17.875 6.90839 17.875C6.70128 17.875 6.53339 18.0429 6.53339 18.25C6.53339 18.4571 6.70128 18.625 6.90839 18.625Z" fill="#49454F"/>
</svg>
