<svg width="24" height="24" viewBox="0 0 24 24" fill="none" xmlns="http://www.w3.org/2000/svg">
<path d="M21.6804 14.92L20.2004 13.44C20.3604 12.44 20.3604 11.36 20.1604 10.36L21.6004 8.84C22.0804 8.32 22.1604 7.56 21.8004 7L20.9604 5.64C20.6004 5.04 19.8804 4.76 19.2404 4.96L17.2404 5.52C16.5204 4.92 15.7204 4.48 14.8404 4.16L14.2804 2.12C14.0804 1.44 13.4804 1 12.8004 1H11.2004C10.5204 1 9.88041 1.48 9.72041 2.12L9.16041 4.16C8.28041 4.56 7.44041 5.08 6.64041 5.64L4.60041 5.12C3.92041 4.96 3.24041 5.24 2.88041 5.84L2.08041 7.24C1.72041 7.84 1.84041 8.6 2.32041 9.08L3.80041 10.56C3.72041 11.04 3.68041 11.52 3.68041 12C3.68041 12.56 3.76041 13.08 3.84041 13.6L2.40041 15.12C1.92041 15.64 1.84041 16.4 2.20041 16.96L3.04041 18.32C3.40041 18.92 4.12041 19.2 4.76041 19L6.84041 18.44L9.20041 19.76L9.76041 21.84C9.96041 22.52 10.5604 22.96 11.2404 22.96H12.8404C13.5204 22.96 14.1204 22.48 14.3204 21.84L14.8804 19.84C15.8004 19.52 16.6804 19 17.4404 18.36L19.4804 18.88C20.1604 19.04 20.8404 18.76 21.2004 18.16L22.0004 16.76C22.2804 16.16 22.2004 15.4 21.6804 14.92ZM8.72041 8.96C8.56041 8.8 8.56041 8.52 8.72041 8.36C8.88041 8.2 9.12041 8.2 9.28041 8.36C9.44041 8.52 9.44041 8.8 9.28041 8.96C9.16041 9.12 8.92041 9.12 8.72041 8.96ZM16.8404 11.24C17.2404 13.92 15.4404 16.4 12.7604 16.8C10.0804 17.2 7.60041 15.4 7.16041 12.76C7.04041 11.92 7.12041 11.08 7.44041 10.28C7.52041 10.08 7.76041 9.96 8.00041 10.04C8.24041 10.12 8.32041 10.36 8.24041 10.6C8.04041 11.12 7.96041 11.68 8.00041 12.24C8.12041 14.48 10.0004 16.2 12.2404 16.08C14.4804 15.96 16.2004 14.08 16.0804 11.84C15.9604 9.6 14.0804 7.88 11.8404 8C11.6004 8 11.3604 8.04 11.1204 8.08C10.9604 8.12 10.8404 8.08 10.7204 7.96C10.5604 7.8 10.5604 7.52 10.7204 7.36C10.7604 7.32 10.8404 7.28 10.9204 7.24C11.4004 7.12 11.9204 7.08 12.4404 7.12C14.6404 7.32 16.4804 9 16.8404 11.24ZM21.2004 16.36L20.4004 17.76C20.2404 18.04 19.9204 18.16 19.6004 18.08L17.1604 17.44L17.0004 17.6C16.2404 18.28 15.3204 18.8 14.3604 19.12L14.1604 19.2L13.4804 21.64C13.4004 21.96 13.1204 22.16 12.8004 22.16H11.2004C10.8804 22.16 10.6004 21.96 10.5204 21.64L9.88041 19.24L6.92041 17.56L4.52041 18.24C4.20041 18.32 3.88041 18.2 3.72041 17.92L2.88041 16.56C2.72041 16.28 2.76041 15.96 2.96041 15.72L4.68041 13.88L4.64041 13.68C4.56041 13.12 4.48041 12.56 4.44041 12C4.44041 11.48 4.60041 10.48 4.60041 10.48L4.64041 10.28L2.88041 8.48C2.64041 8.24 2.60041 7.92 2.76041 7.64L3.56041 6.24C3.72041 5.96 4.04041 5.84 4.36041 5.92L6.80041 6.56L6.96041 6.44C6.96041 6.44 8.68041 5.2 9.64041 4.88L9.84041 4.8L10.5204 2.36C10.6004 2.04 10.8804 1.84 11.2004 1.84H12.8004C13.1204 1.84 13.4004 2.04 13.4804 2.36L14.1604 4.8L14.3604 4.88C15.2804 5.2 16.1204 5.68 16.8804 6.28L17.0404 6.44L19.4804 5.76C19.8004 5.68 20.1204 5.8 20.2804 6.08L21.1204 7.44C21.2804 7.72 21.2404 8.04 21.0404 8.28L19.2804 10.12L19.3204 10.32C19.4404 10.88 19.5204 11.44 19.5204 12C19.5204 12.52 19.4804 13 19.3604 13.52L19.3204 13.72L21.1204 15.52C21.3204 15.72 21.3604 16.08 21.2004 16.36Z" fill="#49454F"/>
</svg>
